<svg width="32" height="32" viewBox="0 0 32 32" fill="none" xmlns="http://www.w3.org/2000/svg">
<path fill-rule="evenodd" clip-rule="evenodd" d="M3.85379 13.4792C3.56613 13.0077 2.95075 12.8587 2.47929 13.1464C2.00784 13.434 1.85884 14.0494 2.1465 14.5209C2.26376 14.7131 2.69465 15.2472 3.33234 15.9055C3.99631 16.591 4.93997 17.4688 6.12612 18.3436C6.36456 18.5195 6.61342 18.6956 6.87236 18.8704L4.70714 21.0356C4.31662 21.4262 4.31662 22.0593 4.70714 22.4499C5.09767 22.8404 5.73083 22.8404 6.12136 22.4499L8.63401 19.9372C10.4395 20.9089 12.5856 21.6998 15.0001 21.9359V25.5001C15.0001 26.0524 15.4478 26.5001 16.0001 26.5001C16.5524 26.5001 17.0001 26.0524 17.0001 25.5001V21.9465C18.6183 21.7913 21.2423 21.258 23.9143 19.8285L26.5357 22.4498C26.9262 22.8403 27.5593 22.8403 27.9499 22.4498C28.3404 22.0593 28.3404 21.4261 27.9499 21.0356L25.6682 18.7539C27.163 17.7107 28.6063 16.3455 29.8253 14.5649C30.1373 14.1092 30.0208 13.4869 29.5651 13.1749C29.1094 12.8629 28.487 12.9794 28.175 13.4351C24.3341 19.0451 17.8792 19.9944 16.0166 20C12.4786 19.8761 9.48234 18.3337 7.3132 16.734C6.23119 15.936 5.37012 15.1347 4.76888 14.514C4.21213 13.9392 3.91729 13.5604 3.86291 13.4906C3.856 13.4817 3.85298 13.4778 3.85379 13.4792Z" fill="#B3B3BC"/>
</svg>
